<?xml version="1.0" encoding="UTF-8" standalone="no"?><svg width="23" height="24" viewBox="0 0 23 24" fill="none" xmlns="http://www.w3.org/2000/svg">
<g clip-path="url(#clip0_147_11861)">
<path d="M18.2082 8.16667H4.7915C3.20067 8.16667 1.9165 9.45083 1.9165 11.0417V16.7917H5.74984V20.625H17.2498V16.7917H21.0832V11.0417C21.0832 9.45083 19.799 8.16667 18.2082 8.16667ZM15.3332 18.7083H7.6665V13.9167H15.3332V18.7083ZM18.2082 12C17.6811 12 17.2498 11.5687 17.2498 11.0417C17.2498 10.5146 17.6811 10.0833 18.2082 10.0833C18.7353 10.0833 19.1665 10.5146 19.1665 11.0417C19.1665 11.5687 18.7353 12 18.2082 12ZM17.2498 3.375H5.74984V7.20833H17.2498V3.375Z" fill="white"/>
</g>
<defs>
<clipPath id="clip0_147_11861">
<rect width="23" height="23" fill="white" transform="translate(0 0.5)"/>
</clipPath>
</defs>
</svg>
