<svg width="29" height="28" viewBox="0 0 29 28" fill="none" xmlns="http://www.w3.org/2000/svg">
<g clip-path="url(#clip0_164_13120)">
<path d="M28.4939 0.797862C28.4818 0.730973 28.4574 0.664027 28.4209 0.609284C28.4148 0.597138 28.4088 0.578891 28.4027 0.566687C28.3966 0.554541 28.3844 0.54844 28.3723 0.536294C28.348 0.5059 28.3176 0.475449 28.2872 0.451157C28.2628 0.432909 28.2385 0.414662 28.2142 0.396414C28.202 0.390313 28.1959 0.378166 28.1838 0.372065C28.1655 0.365963 28.1412 0.353817 28.1169 0.347716C28.0865 0.33557 28.056 0.323366 28.0257 0.317322C27.9892 0.31122 27.9527 0.305176 27.9162 0.305176C27.8858 0.305176 27.8553 0.305176 27.8249 0.305176C27.7823 0.311277 27.7398 0.323423 27.7033 0.33557C27.6851 0.341671 27.6607 0.341671 27.6425 0.347716L0.866984 11.9229C0.556774 12.0567 0.416894 12.4156 0.550672 12.7258C0.611517 12.8596 0.714901 12.9751 0.848736 13.036L10.8485 17.7378V27.0867C10.8485 27.4212 11.1222 27.695 11.4567 27.695C11.6696 27.695 11.8643 27.5855 11.9738 27.403L16.2011 20.5297L22.7338 23.9724C23.0318 24.1306 23.3968 24.015 23.5549 23.717C23.5793 23.6683 23.5975 23.6136 23.6097 23.5649L28.4879 1.04118C28.4879 1.02904 28.4879 1.01683 28.4879 1.00469C28.494 0.968193 28.494 0.937799 28.5 0.907348C28.5 0.870853 28.5 0.834358 28.4939 0.797862ZM11.335 16.6125L2.60051 12.5007L25.2033 2.74426L11.335 16.6125ZM12.0649 24.9274V18.3521L15.1244 19.964L12.0649 24.9274ZM22.5938 22.5187L16.8458 19.4957L15.8118 18.857L15.7692 18.93L12.4785 17.1965L26.8516 2.81121L22.5938 22.5187Z" fill="white"/>
</g>
<defs>
<clipPath id="clip0_164_13120">
<rect width="28" height="28" fill="white" transform="translate(0.5)"/>
</clipPath>
</defs>
</svg>
